<?xml version="1.0" encoding="utf-8"?>
<!-- Generator: Adobe Illustrator 25.2.0, SVG Export Plug-In . SVG Version: 6.00 Build 0)  -->
<svg version="1.1" id="Layer_1" xmlns="http://www.w3.org/2000/svg" xmlns:xlink="http://www.w3.org/1999/xlink" x="0px" y="0px"
	 viewBox="0 0 595.3 841.9" style="enable-background:new 0 0 595.3 841.9;" xml:space="preserve">
<style type="text/css">
	.st0{fill:#F3F3F3;stroke:#010101;stroke-miterlimit:10;}
	.st1{fill:none;stroke:#FFFFFF;stroke-width:3;stroke-miterlimit:10;}
</style>
<path class="st0" d="M281,682.3c-146.4,0-265.1-117-265.1-261.3c0-144.3,118.7-261.3,265.1-261.3c77.9,0,147.9,33.1,196.4,85.8
	l-59.9,34.1c-35.5-33.3-83.6-53.8-136.5-53.8C171.6,225.8,83,313.2,83,421S171.6,616.2,281,616.2c55.9,0,106.4-22.8,142.4-59.5
	l59.4,33.8C434.2,646.7,361.8,682.3,281,682.3"/>
<path class="st0" d="M391.6,294.3c-29.7-25.2-68.3-40.4-110.6-40.4c-93.6,0-169.5,74.8-169.5,167.1c0,92.3,75.9,167.1,169.5,167.1
	c45.2,0,86.3-17.5,116.7-45.9c32.5-30.4,52.8-73.5,52.8-121.1C450.6,370.4,427.7,325,391.6,294.3z M361.3,521.4
	c-22.1,17.2-49.9,27.4-80.2,27.4c-71.6,0-129.6-57.2-129.6-127.8c0-70.6,58-127.8,129.6-127.8c27.2,0,52.4,8.2,73.2,22.3
	c34.1,23,56.4,61.6,56.4,105.4C410.7,461.7,391.4,498,361.3,521.4z"/>
<polygon class="st0" points="374,355.4 374,463.4 315.5,496.7 278.6,517.7 183.2,463.4 183.2,355.4 232.6,383.4 278.6,409.6 "/>
<line class="st1" x1="278.6" y1="410.1" x2="278.6" y2="517.7"/>
</svg>
